<?xml version="1.0" encoding="UTF-8" standalone="no"?>
<!-- Created with Inkscape (http://www.inkscape.org/) by Toomai Glittershine for SmashWiki -->
<svg id="svg2" xmlns:rdf="http://www.w3.org/1999/02/22-rdf-syntax-ns#" xmlns="http://www.w3.org/2000/svg" version="1.1" xmlns:cc="http://creativecommons.org/ns#" xmlns:dc="http://purl.org/dc/elements/1.1/"
		height="256" width="256"
		viewBox="0 0 256 256">
	<metadata id="metadata7">
		<rdf:RDF>
			<cc:Work rdf:about="">
				<dc:format>image/svg+xml</dc:format>
				<dc:type rdf:resource="http://purl.org/dc/dcmitype/StillImage"/>
				<dc:title/>
			</cc:Work>
		</rdf:RDF>
	</metadata>
	<path id="mainsymbolpath" style="opacity:0.5;fill:#000000;fill-opacity:1;stroke:none"
		d="m 75.0673,114.35037 c -4.762175,-1.7333 -9.584642,-2.84715 -14.407579,-3.38781 -0.871975,1.99494 -1.672185,3.99433 -2.403564,6.00378 -8.080912,22.20212 -6.156998,39.8894 1.842302,54.33458 7.9993,14.44517 22.755423,25.94284 42.072091,32.97354 1.52159,0.5538 3.03857,1.04515 4.55113,1.51998 2.22147,-3.58518 4.10729,-7.45994 5.60687,-11.57999 11.77242,-32.34447 -4.91678,-68.09166 -37.26125,-79.86408 z M 196.90946,101.9215 c -11.19298,5.3652 -20.27349,14.75354 -24.75787,27.07425 -6.75528,18.56002 -1.25463,38.7079 12.4253,52.18134 2.75347,-4.54393 5.2234,-9.70144 7.35461,-15.55691 7.05681,-19.38843 8.68259,-42.81255 4.97796,-63.69868 z M 153.38064,44.75208 c -15.61923,-3.021104 -33.74196,2.604894 -50.75759,14.663157 -3.92622,2.782353 -7.750629,5.894083 -11.426593,9.270715 2.316114,1.401262 4.800833,2.593538 7.44101,3.554483 21.864863,7.95816 46.023903,-3.307389 53.982063,-25.172249 0.27872,-0.765764 0.52922,-1.545459 0.76115,-2.316092 z m 48.19524,124.39046 C 183.77599,218.04738 140.90041,229.29922 98.658542,213.92443 56.416669,198.54965 30.804624,162.37036 48.604527,113.46552 66.40443,64.560692 120.87582,21.449582 163.11769,36.824367 c 42.24187,15.374783 56.2581,83.413343 38.45819,132.318173 z"
	/>
</svg>