<svg version="1.2" xmlns="http://www.w3.org/2000/svg" viewBox="0 0 177 512" width="177" height="512">
	<title>New Project</title>
	<style>
		.s0 { fill: #ff0000;stroke: #000000;stroke-width: 2.7 } 
	</style>
	<path id="Shape 2" class="s0" d="m149 213l-25 95c0 0-4.4 5.3-6 4-1.6-1.3 14.3-25.5 2-77-4-3.3-25.3-4.2-39 61 0.3 14.4 24.2 37.8 22 69-2.2 31.2-16.7 122.5-63 145-15.1 2.8-40.8-13-38-22 2.8-9 25.9-91.9 28-87 2.1 4.9-13.6 72.7-3 81 10.6 8.3 36.7 7 46-76-7.6-12.9-21.3-41.6-23-71 1.3-32.9 20.5-105 66-124 15.8 1.1 21 12 21 12z"/>
	<path id="Shape 1" class="s0" d="m85 18v14l-46 250v19l10-16 106-253 1-4 18-22 1-4h-30l-4 6 4 9 2 9-2 11-68 161 30-165 4-11 3-6 4-1 5-13h-28l-13 2 1 7z"/>
</svg>